<?xml version="1.0" encoding="utf-8"?>
<!-- Generator: Adobe Illustrator 25.2.3, SVG Export Plug-In . SVG Version: 6.00 Build 0)  -->
<svg version="1.1" id="Ebene_1" xmlns="http://www.w3.org/2000/svg" xmlns:xlink="http://www.w3.org/1999/xlink" x="0px" y="0px"
	 viewBox="0 0 500 458" style="enable-background:new 0 0 500 458;" xml:space="preserve">
<style type="text/css">
	.st0{fill:url(#SVGID_1_);}
	.st1{fill:url(#SVGID_2_);}
	.st2{fill:url(#SVGID_3_);}
</style>
<g>
	<g>
		<path d="M64.72,397.03c0,5.54-1.2,10.53-3.59,14.98c-2.4,4.45-5.67,7.97-9.82,10.55c-4.15,2.58-8.89,3.87-14.2,3.87
			c-5.24,0-9.95-1.29-14.14-3.87c-4.19-2.58-7.5-6.1-9.93-10.55c-2.43-4.45-3.65-9.45-3.65-14.98c0-5.61,1.22-10.64,3.65-15.1
			c2.43-4.45,5.74-7.97,9.93-10.55c4.19-2.58,8.9-3.87,14.14-3.87c5.31,0,10.05,1.29,14.2,3.87c4.15,2.58,7.43,6.1,9.82,10.55
			C63.52,386.39,64.72,391.42,64.72,397.03z M60.23,397.03c0-4.86-0.99-9.18-2.97-12.96c-1.98-3.78-4.71-6.77-8.19-8.98
			c-3.48-2.21-7.46-3.31-11.95-3.31c-4.42,0-8.38,1.1-11.9,3.31c-3.52,2.21-6.29,5.2-8.31,8.98c-2.02,3.78-3.03,8.1-3.03,12.96
			c0,4.79,1.01,9.07,3.03,12.85c2.02,3.78,4.79,6.77,8.31,8.98c3.52,2.21,7.48,3.31,11.9,3.31c4.49,0,8.47-1.1,11.95-3.31
			c3.48-2.21,6.21-5.2,8.19-8.98C59.24,406.11,60.23,401.82,60.23,397.03z"/>
		<path d="M81.67,425.32c-0.67,0-1.22-0.22-1.63-0.67c-0.41-0.45-0.62-0.97-0.62-1.57v-51.52c0-0.6,0.22-1.12,0.67-1.57
			c0.45-0.45,0.97-0.67,1.57-0.67c0.67,0,1.22,0.22,1.63,0.67c0.41,0.45,0.62,0.97,0.62,1.57v18.97l-1.91,2.92
			c0-2.92,0.5-5.87,1.52-8.87c1.01-2.99,2.49-5.78,4.43-8.36c1.94-2.58,4.32-4.68,7.13-6.29c2.81-1.61,6.04-2.41,9.71-2.41
			c1.05,0,2.17,0.15,3.37,0.45c1.2,0.3,1.8,1.01,1.8,2.13c0,0.67-0.19,1.23-0.56,1.68c-0.38,0.45-0.86,0.67-1.46,0.67
			c-0.45,0-0.99-0.17-1.63-0.5c-0.64-0.34-1.55-0.5-2.75-0.5c-2.4,0-4.75,0.71-7.07,2.13c-2.32,1.42-4.43,3.31-6.34,5.67
			c-1.91,2.36-3.42,4.92-4.55,7.69c-1.12,2.77-1.68,5.46-1.68,8.08v28.06c0,0.6-0.22,1.12-0.67,1.57
			C82.79,425.09,82.27,425.32,81.67,425.32z"/>
		<path d="M143.96,367.51c3.37,0,6.51,0.6,9.43,1.8c2.92,1.2,5.48,2.77,7.69,4.71c2.21,1.95,3.93,4.04,5.16,6.29
			c1.23,2.24,1.85,4.45,1.85,6.62l-1.46-4.15v-11.22c0-0.6,0.21-1.12,0.62-1.57c0.41-0.45,0.95-0.67,1.63-0.67s1.22,0.22,1.63,0.67
			c0.41,0.45,0.62,0.97,0.62,1.57v48.26c0,5.76-1.18,10.74-3.54,14.93c-2.36,4.19-5.59,7.41-9.71,9.65
			c-4.12,2.24-8.91,3.37-14.37,3.37c-2.99,0-6-0.39-9.04-1.18c-3.03-0.79-5.56-1.78-7.58-2.97c-2.02-1.2-3.03-2.47-3.03-3.82
			c0-0.6,0.17-1.08,0.51-1.46c0.34-0.38,0.8-0.56,1.4-0.56c0.75,0,1.44,0.41,2.08,1.23c0.63,0.82,1.78,1.57,3.42,2.25
			c0.67,0.22,1.59,0.52,2.75,0.9c1.16,0.37,2.56,0.69,4.21,0.95c1.65,0.26,3.48,0.39,5.5,0.39c7.11,0,12.7-2.19,16.78-6.57
			c4.08-4.38,6.12-10.08,6.12-17.12v-11.11l1.12,0.11c-0.9,3.22-2.21,5.95-3.93,8.19c-1.72,2.25-3.69,4.06-5.89,5.44
			c-2.21,1.39-4.53,2.4-6.96,3.03c-2.43,0.63-4.77,0.95-7.02,0.95c-5.16,0-9.78-1.29-13.86-3.87c-4.08-2.58-7.31-6.1-9.71-10.55
			c-2.4-4.45-3.59-9.48-3.59-15.1c0-5.61,1.2-10.64,3.59-15.1c2.39-4.45,5.63-7.95,9.71-10.49
			C134.18,368.79,138.8,367.51,143.96,367.51z M144.19,371.78c-4.34,0-8.25,1.08-11.73,3.25c-3.48,2.17-6.21,5.15-8.19,8.92
			c-1.98,3.78-2.97,8.1-2.97,12.96c0,4.79,0.99,9.09,2.97,12.91c1.98,3.82,4.71,6.83,8.19,9.04c3.48,2.21,7.39,3.31,11.73,3.31
			c4.34,0,8.23-1.07,11.67-3.2c3.44-2.13,6.17-5.09,8.19-8.87c2.02-3.78,3.03-8.17,3.03-13.19c0-5.01-1.01-9.41-3.03-13.19
			c-2.02-3.78-4.75-6.71-8.19-8.81C152.42,372.83,148.52,371.78,144.19,371.78z"/>
		<path d="M235.66,369.31c0.67,0,1.22,0.22,1.63,0.67c0.41,0.45,0.62,0.97,0.62,1.57v51.52c0,0.6-0.22,1.12-0.67,1.57
			c-0.45,0.45-0.97,0.67-1.57,0.67c-0.67,0-1.22-0.22-1.63-0.67c-0.41-0.45-0.62-0.97-0.62-1.57v-15.94l1.8-1.46
			c0,2.4-0.6,4.83-1.8,7.29c-1.2,2.47-2.84,4.71-4.94,6.73c-2.1,2.02-4.56,3.65-7.41,4.88c-2.84,1.23-5.91,1.85-9.2,1.85
			c-5.01,0-9.48-1.31-13.41-3.93c-3.93-2.62-7.02-6.17-9.26-10.66c-2.25-4.49-3.37-9.54-3.37-15.15c0-5.69,1.14-10.72,3.42-15.1
			c2.28-4.38,5.39-7.82,9.32-10.33c3.93-2.51,8.36-3.76,13.3-3.76c3.22,0,6.25,0.58,9.09,1.74c2.84,1.16,5.33,2.79,7.46,4.88
			c2.13,2.1,3.8,4.55,4.99,7.35c1.2,2.81,1.8,5.86,1.8,9.15l-1.8-2.81v-16.27c0-0.6,0.21-1.12,0.62-1.57
			C234.44,369.53,234.99,369.31,235.66,369.31z M212.09,422.17c4.19,0,7.93-1.1,11.22-3.31c3.29-2.21,5.87-5.24,7.74-9.09
			c1.87-3.85,2.81-8.21,2.81-13.08c0-4.64-0.94-8.85-2.81-12.63c-1.87-3.78-4.45-6.77-7.74-8.98c-3.29-2.21-7.03-3.31-11.22-3.31
			c-4.12,0-7.82,1.07-11.11,3.2c-3.29,2.13-5.89,5.07-7.8,8.81c-1.91,3.74-2.86,8.04-2.86,12.91c0,4.87,0.94,9.22,2.81,13.08
			c1.87,3.85,4.45,6.88,7.74,9.09C204.16,421.07,207.9,422.17,212.09,422.17z"/>
		<path d="M282.01,367.51c4.71,0,8.55,0.94,11.5,2.81c2.96,1.87,5.12,4.42,6.51,7.63c1.38,3.22,2.08,6.81,2.08,10.78v34.34
			c0,0.6-0.22,1.12-0.67,1.57c-0.45,0.45-0.97,0.67-1.57,0.67c-0.67,0-1.22-0.22-1.63-0.67c-0.41-0.45-0.62-0.97-0.62-1.57v-33.9
			c0-3.22-0.54-6.13-1.63-8.75c-1.09-2.62-2.81-4.71-5.16-6.29c-2.36-1.57-5.44-2.36-9.26-2.36c-3.29,0-6.51,0.79-9.65,2.36
			c-3.14,1.57-5.74,3.67-7.8,6.29c-2.06,2.62-3.09,5.54-3.09,8.75v33.9c0,0.6-0.22,1.12-0.67,1.57c-0.45,0.45-0.97,0.67-1.57,0.67
			c-0.67,0-1.22-0.22-1.63-0.67c-0.41-0.45-0.62-0.97-0.62-1.57v-51.52c0-0.6,0.22-1.12,0.67-1.57s0.97-0.67,1.57-0.67
			c0.67,0,1.22,0.22,1.63,0.67c0.41,0.45,0.62,0.97,0.62,1.57v11l-2.81,5.39c0-2.69,0.71-5.28,2.13-7.74
			c1.42-2.47,3.29-4.66,5.61-6.57c2.32-1.91,4.88-3.4,7.69-4.49C276.46,368.06,279.25,367.51,282.01,367.51z"/>
		<path d="M322.98,359.88c-1.2,0-2.15-0.34-2.86-1.01c-0.71-0.67-1.07-1.53-1.07-2.58v-0.9c0-1.05,0.37-1.91,1.12-2.58
			c0.75-0.67,1.72-1.01,2.92-1.01c1.05,0,1.93,0.34,2.64,1.01c0.71,0.67,1.07,1.53,1.07,2.58v0.9c0,1.05-0.36,1.91-1.07,2.58
			C325.02,359.54,324.1,359.88,322.98,359.88z M325.23,423.07c0,0.6-0.22,1.12-0.67,1.57c-0.45,0.45-0.97,0.67-1.57,0.67
			c-0.67,0-1.22-0.22-1.63-0.67c-0.41-0.45-0.62-0.97-0.62-1.57v-53.31c0-0.6,0.22-1.12,0.67-1.57s0.97-0.67,1.57-0.67
			c0.67,0,1.22,0.22,1.63,0.67c0.41,0.45,0.62,0.97,0.62,1.57V423.07z"/>
		<path d="M368.21,367.51c3.37,0,6.53,0.38,9.48,1.12c2.96,0.75,5.35,1.74,7.18,2.97c1.83,1.24,2.75,2.53,2.75,3.87
			c0,0.52-0.21,1.03-0.62,1.51c-0.41,0.49-0.92,0.73-1.51,0.73c-0.82,0-1.48-0.22-1.96-0.67c-0.49-0.45-0.99-0.99-1.51-1.63
			c-0.52-0.63-1.35-1.21-2.47-1.74c-1.05-0.52-2.53-0.97-4.43-1.35c-1.91-0.37-4.25-0.56-7.01-0.56c-4.34,0-8.31,1.12-11.9,3.37
			c-3.59,2.24-6.45,5.26-8.59,9.04c-2.13,3.78-3.2,8.03-3.2,12.74c0,4.79,0.99,9.09,2.97,12.91c1.98,3.82,4.75,6.83,8.31,9.04
			c3.55,2.21,7.69,3.31,12.4,3.31c3.37,0,5.93-0.32,7.69-0.95c1.76-0.63,3.27-1.33,4.55-2.08c1.57-0.9,2.66-1.76,3.25-2.58
			c0.6-0.82,1.31-1.23,2.13-1.23c0.6,0,1.07,0.19,1.4,0.56c0.34,0.38,0.51,0.86,0.51,1.46c0,0.9-0.82,2.08-2.47,3.54
			c-1.65,1.46-3.95,2.75-6.9,3.87c-2.96,1.12-6.45,1.68-10.5,1.68c-5.46,0-10.29-1.29-14.48-3.87c-4.19-2.58-7.46-6.1-9.82-10.55
			c-2.36-4.45-3.54-9.48-3.54-15.1c0-5.24,1.18-10.08,3.54-14.54c2.36-4.45,5.65-8.04,9.88-10.78
			C357.57,368.88,362.52,367.51,368.21,367.51z"/>
		<path d="M426.24,426.44c-5.61,0-10.57-1.2-14.87-3.59c-4.3-2.39-7.69-5.78-10.16-10.16c-2.47-4.38-3.7-9.52-3.7-15.43
			c0-6.29,1.21-11.63,3.65-16.05c2.43-4.41,5.57-7.8,9.43-10.16c3.85-2.36,7.95-3.54,12.29-3.54c3.14,0,6.21,0.5,9.2,1.52
			c2.99,1.01,5.67,2.58,8.03,4.71s4.27,4.79,5.72,7.97c1.46,3.18,2.26,6.98,2.41,11.39c0,0.6-0.22,1.14-0.67,1.63
			c-0.45,0.49-0.97,0.73-1.57,0.73H400.2l-0.67-4.27h45.23l-1.12,1.01v-2.02c-0.38-3.97-1.63-7.3-3.76-9.99
			c-2.13-2.69-4.7-4.73-7.69-6.12c-2.99-1.38-6.1-2.08-9.32-2.08c-2.25,0-4.6,0.5-7.07,1.51c-2.47,1.01-4.75,2.54-6.85,4.6
			c-2.1,2.06-3.8,4.66-5.11,7.8c-1.31,3.14-1.96,6.81-1.96,11c0,4.56,0.92,8.75,2.75,12.57c1.83,3.82,4.56,6.89,8.19,9.2
			c3.63,2.32,8.1,3.48,13.41,3.48c2.54,0,4.94-0.43,7.18-1.29c2.24-0.86,4.26-2,6.06-3.42c1.8-1.42,3.25-2.96,4.38-4.6
			c0.6-0.67,1.24-1.01,1.91-1.01c0.52,0,0.97,0.21,1.35,0.62c0.37,0.41,0.56,0.88,0.56,1.4c0,0.52-0.15,0.97-0.45,1.35
			c-2.32,2.99-5.29,5.61-8.92,7.86C434.67,425.32,430.65,426.44,426.24,426.44z"/>
		<path d="M465.18,425.32c-0.67,0-1.22-0.22-1.63-0.67c-0.41-0.45-0.62-0.97-0.62-1.57v-51.52c0-0.6,0.22-1.12,0.67-1.57
			s0.97-0.67,1.57-0.67c0.67,0,1.22,0.22,1.63,0.67c0.41,0.45,0.62,0.97,0.62,1.57v18.97l-1.91,2.92c0-2.92,0.5-5.87,1.52-8.87
			c1.01-2.99,2.49-5.78,4.43-8.36c1.95-2.58,4.32-4.68,7.13-6.29c2.81-1.61,6.04-2.41,9.71-2.41c1.05,0,2.17,0.15,3.37,0.45
			c1.2,0.3,1.8,1.01,1.8,2.13c0,0.67-0.19,1.23-0.56,1.68c-0.38,0.45-0.86,0.67-1.46,0.67c-0.45,0-0.99-0.17-1.63-0.5
			c-0.64-0.34-1.55-0.5-2.75-0.5c-2.4,0-4.75,0.71-7.07,2.13c-2.32,1.42-4.43,3.31-6.34,5.67c-1.91,2.36-3.42,4.92-4.55,7.69
			c-1.12,2.77-1.68,5.46-1.68,8.08v28.06c0,0.6-0.22,1.12-0.67,1.57C466.31,425.09,465.78,425.32,465.18,425.32z"/>
	</g>
</g>
<linearGradient id="SVGID_1_" gradientUnits="userSpaceOnUse" x1="161.3559" y1="196.8198" x2="206.3078" y2="196.6444">
	<stop  offset="0" style="stop-color:#ED1C24"/>
	<stop  offset="0.3196" style="stop-color:#EA1C23"/>
	<stop  offset="0.5149" style="stop-color:#E21A21"/>
	<stop  offset="0.6768" style="stop-color:#D4171D"/>
	<stop  offset="0.8205" style="stop-color:#BF1417"/>
	<stop  offset="0.9509" style="stop-color:#A50F10"/>
	<stop  offset="1" style="stop-color:#990D0D"/>
</linearGradient>
<path class="st0" d="M156.48,349.71l0.07-261.18c-0.02-0.82-0.03-2.13,0.1-3.72c1.48-17.48,17.05-34.14,35.3-39.42
	c3.76-1.09,9.92-2.35,17.93-1.63c0,86.15,0,172.31,0,258.46c-0.23,8.39-2.42,14.62-4.01,18.24c-6.51,14.81-20.35,25.32-35.17,28.45
	C164.75,350.17,159.68,350.01,156.48,349.71z"/>
<linearGradient id="SVGID_2_" gradientUnits="userSpaceOnUse" x1="1142.0004" y1="178.7028" x2="1098.031" y2="178.7028" gradientTransform="matrix(-1 0 0 1 1364.0869 0)">
	<stop  offset="0" style="stop-color:#E95B0C"/>
	<stop  offset="0.3958" style="stop-color:#E75A0C"/>
	<stop  offset="0.6212" style="stop-color:#DE560D"/>
	<stop  offset="0.8038" style="stop-color:#D0500F"/>
	<stop  offset="0.9625" style="stop-color:#BD4812"/>
	<stop  offset="1" style="stop-color:#B74513"/>
</linearGradient>
<path class="st1" d="M270.14,313.67l-0.07-230.43c0.02-0.73,0.03-1.88-0.1-3.28c-1.48-15.42-17.05-30.12-35.3-34.78
	c-3.76-0.96-9.92-2.08-17.93-1.44c0,76.01,0,152.02,0,228.04c0.23,7.41,2.42,12.9,4.01,16.09c6.51,13.06,20.35,22.34,35.17,25.1
	C261.88,314.07,266.94,313.94,270.14,313.67z"/>
<linearGradient id="SVGID_3_" gradientUnits="userSpaceOnUse" x1="281.863" y1="160.7552" x2="326.8149" y2="160.5798">
	<stop  offset="0" style="stop-color:#B72585"/>
	<stop  offset="0.2501" style="stop-color:#BC268A"/>
	<stop  offset="0.5416" style="stop-color:#CA2897"/>
	<stop  offset="0.8526" style="stop-color:#E12CAC"/>
	<stop  offset="1" style="stop-color:#EF2EB9"/>
</linearGradient>
<path class="st2" d="M276.99,313.65l0.07-261.18c-0.02-0.82-0.03-2.13,0.1-3.72c1.48-17.48,17.05-34.14,35.3-39.42
	c3.76-1.09,9.92-2.35,17.93-1.63c0,86.15,0,172.31,0,258.46c-0.23,8.39-2.42,14.62-4.01,18.24c-6.51,14.81-20.35,25.32-35.17,28.45
	C285.25,314.1,280.19,313.95,276.99,313.65z"/>
</svg>
