<?xml version="1.0" encoding="utf-8"?>
<!-- Generator: Adobe Illustrator 25.2.3, SVG Export Plug-In . SVG Version: 6.00 Build 0)  -->
<svg version="1.1" id="Ebene_1" xmlns="http://www.w3.org/2000/svg" xmlns:xlink="http://www.w3.org/1999/xlink" x="0px" y="0px"
	 viewBox="0 0 502 139" style="enable-background:new 0 0 502 139;" xml:space="preserve">
<style type="text/css">
	.st0{fill:url(#SVGID_1_);}
	.st1{fill:url(#SVGID_2_);}
	.st2{fill:url(#SVGID_3_);}
</style>
<g>
	<g>
		<path d="M76.41,75.47c0,5.67-0.87,10.85-2.61,15.53c-1.74,4.68-4.2,8.72-7.39,12.12s-6.95,6.03-11.27,7.87
			c-4.33,1.84-9.08,2.76-14.25,2.76c-5.18,0-9.93-0.92-14.25-2.76c-4.33-1.84-8.08-4.47-11.27-7.87s-5.65-7.44-7.39-12.12
			c-1.74-4.68-2.61-9.85-2.61-15.53c0-5.67,0.87-10.85,2.61-15.53c1.74-4.68,4.2-8.72,7.39-12.12c3.19-3.4,6.95-6.03,11.27-7.87
			c4.32-1.84,9.07-2.77,14.25-2.77c5.17,0,9.93,0.92,14.25,2.77c4.32,1.84,8.08,4.47,11.27,7.87c3.19,3.4,5.65,7.44,7.39,12.12
			C75.54,64.62,76.41,69.8,76.41,75.47z M71.94,75.47c0-6.81-1.33-12.76-3.99-17.87c-2.66-5.1-6.31-9.07-10.95-11.91
			c-4.64-2.83-10.02-4.25-16.11-4.25c-6.03,0-11.38,1.42-16.06,4.25c-4.68,2.84-8.35,6.81-11.01,11.91
			c-2.66,5.11-3.99,11.06-3.99,17.87c0,6.81,1.33,12.76,3.99,17.87s6.33,9.08,11.01,11.91c4.68,2.84,10.03,4.25,16.06,4.25
			c6.1,0,11.47-1.42,16.11-4.25c4.64-2.83,8.29-6.81,10.95-11.91S71.94,82.27,71.94,75.47z"/>
		<path d="M92.68,112.69c-0.64,0-1.15-0.21-1.54-0.64c-0.39-0.43-0.58-0.92-0.58-1.49V61.75c0-0.57,0.21-1.06,0.64-1.49
			c0.43-0.43,0.92-0.64,1.49-0.64c0.64,0,1.15,0.21,1.54,0.64c0.39,0.43,0.58,0.92,0.58,1.49v17.97l-1.81,2.76
			c0-2.76,0.48-5.56,1.44-8.4c0.96-2.83,2.36-5.48,4.2-7.92c1.84-2.45,4.09-4.43,6.75-5.96c2.66-1.52,5.72-2.29,9.2-2.29
			c0.99,0,2.06,0.14,3.19,0.43c1.13,0.28,1.7,0.96,1.7,2.02c0,0.64-0.18,1.17-0.53,1.59c-0.36,0.43-0.82,0.64-1.38,0.64
			c-0.43,0-0.94-0.16-1.54-0.48c-0.6-0.32-1.47-0.48-2.61-0.48c-2.27,0-4.5,0.67-6.7,2.02c-2.2,1.35-4.2,3.14-6.01,5.37
			c-1.81,2.23-3.24,4.66-4.31,7.29c-1.06,2.62-1.6,5.18-1.6,7.66v26.59c0,0.57-0.21,1.06-0.64,1.49
			C93.74,112.48,93.24,112.69,92.68,112.69z"/>
		<path d="M151.7,57.92c3.19,0,6.17,0.57,8.93,1.7c2.77,1.13,5.19,2.62,7.28,4.47c2.09,1.84,3.72,3.83,4.89,5.96
			s1.75,4.22,1.75,6.27l-1.38-3.93V61.75c0-0.57,0.19-1.06,0.58-1.49c0.39-0.43,0.9-0.64,1.54-0.64c0.64,0,1.15,0.21,1.54,0.64
			c0.39,0.43,0.58,0.92,0.58,1.49v45.73c0,5.46-1.12,10.17-3.35,14.14c-2.23,3.97-5.3,7.02-9.2,9.15c-3.9,2.13-8.44,3.19-13.61,3.19
			c-2.84,0-5.69-0.37-8.56-1.12c-2.87-0.75-5.26-1.69-7.18-2.82c-1.91-1.13-2.87-2.34-2.87-3.62c0-0.57,0.16-1.03,0.48-1.38
			c0.32-0.36,0.76-0.53,1.33-0.53c0.71,0,1.36,0.39,1.97,1.17c0.6,0.78,1.68,1.49,3.24,2.13c0.64,0.21,1.51,0.5,2.61,0.85
			c1.1,0.35,2.43,0.66,3.99,0.9c1.56,0.25,3.3,0.37,5.21,0.37c6.73,0,12.03-2.07,15.9-6.22c3.86-4.15,5.8-9.55,5.8-16.22V96.95
			l1.06,0.11c-0.85,3.05-2.09,5.64-3.72,7.76c-1.63,2.13-3.49,3.85-5.58,5.16c-2.09,1.31-4.29,2.27-6.59,2.87
			c-2.3,0.6-4.52,0.9-6.65,0.9c-4.89,0-9.27-1.22-13.13-3.67c-3.87-2.45-6.93-5.78-9.2-10c-2.27-4.22-3.4-8.99-3.4-14.3
			s1.13-10.08,3.4-14.3c2.27-4.22,5.33-7.53,9.2-9.94C142.43,59.13,146.81,57.92,151.7,57.92z M151.91,61.96
			c-4.11,0-7.82,1.03-11.11,3.08c-3.3,2.06-5.89,4.88-7.76,8.46c-1.88,3.58-2.82,7.68-2.82,12.28c0,4.54,0.94,8.61,2.82,12.23
			c1.88,3.62,4.47,6.47,7.76,8.56c3.3,2.09,7,3.14,11.11,3.14c4.11,0,7.8-1.01,11.06-3.03c3.26-2.02,5.85-4.82,7.76-8.4
			c1.91-3.58,2.87-7.75,2.87-12.5c0-4.75-0.96-8.92-2.87-12.5c-1.91-3.58-4.5-6.36-7.76-8.35
			C159.71,62.96,156.02,61.96,151.91,61.96z"/>
		<path d="M238.58,59.62c0.64,0,1.15,0.21,1.54,0.64c0.39,0.43,0.58,0.92,0.58,1.49v48.81c0,0.57-0.21,1.06-0.64,1.49
			c-0.43,0.42-0.92,0.64-1.49,0.64c-0.64,0-1.15-0.21-1.54-0.64c-0.39-0.43-0.58-0.92-0.58-1.49v-15.1l1.7-1.38
			c0,2.27-0.57,4.57-1.7,6.91c-1.13,2.34-2.7,4.47-4.68,6.38c-1.99,1.91-4.33,3.46-7.02,4.63c-2.7,1.17-5.6,1.75-8.72,1.75
			c-4.75,0-8.99-1.24-12.71-3.72c-3.72-2.48-6.65-5.85-8.77-10.1c-2.13-4.25-3.19-9.04-3.19-14.36c0-5.39,1.08-10.16,3.24-14.3
			c2.16-4.15,5.1-7.41,8.83-9.78c3.72-2.37,7.92-3.56,12.6-3.56c3.05,0,5.92,0.55,8.61,1.65c2.69,1.1,5.05,2.64,7.07,4.63
			c2.02,1.99,3.6,4.31,4.73,6.97c1.13,2.66,1.7,5.55,1.7,8.67l-1.7-2.66V61.75c0-0.57,0.19-1.06,0.58-1.49
			C237.43,59.83,237.95,59.62,238.58,59.62z M216.25,109.71c3.97,0,7.51-1.05,10.63-3.14c3.12-2.09,5.56-4.96,7.34-8.61
			c1.77-3.65,2.66-7.78,2.66-12.39c0-4.39-0.89-8.38-2.66-11.96c-1.77-3.58-4.22-6.42-7.34-8.51c-3.12-2.09-6.67-3.14-10.63-3.14
			c-3.9,0-7.41,1.01-10.53,3.03c-3.12,2.02-5.58,4.8-7.39,8.35c-1.81,3.55-2.71,7.62-2.71,12.23c0,4.61,0.89,8.74,2.66,12.39
			c1.77,3.65,4.22,6.52,7.34,8.61C208.74,108.67,212.28,109.71,216.25,109.71z"/>
	</g>
</g>
<g>
	<g>
		<path d="M337.08,54.23c-1.13,0-2.04-0.32-2.71-0.96c-0.67-0.64-1.01-1.45-1.01-2.45v-0.85c0-0.99,0.35-1.81,1.06-2.45
			c0.71-0.64,1.63-0.96,2.77-0.96c0.99,0,1.82,0.32,2.5,0.96c0.67,0.64,1.01,1.45,1.01,2.45v0.85c0,0.99-0.34,1.81-1.01,2.45
			C339.01,53.91,338.14,54.23,337.08,54.23z M339.21,114.11c0,0.57-0.21,1.06-0.64,1.49c-0.42,0.42-0.92,0.64-1.49,0.64
			c-0.64,0-1.15-0.21-1.54-0.64c-0.39-0.43-0.58-0.92-0.58-1.49V63.59c0-0.57,0.21-1.06,0.64-1.49c0.43-0.43,0.92-0.64,1.49-0.64
			c0.64,0,1.15,0.21,1.54,0.64c0.39,0.42,0.58,0.92,0.58,1.49V114.11z"/>
		<path d="M379.94,61.46c3.19,0,6.18,0.36,8.99,1.06c2.8,0.71,5.07,1.65,6.81,2.82c1.74,1.17,2.61,2.39,2.61,3.67
			c0,0.5-0.2,0.98-0.58,1.44c-0.39,0.46-0.87,0.69-1.44,0.69c-0.78,0-1.4-0.21-1.86-0.64c-0.46-0.43-0.94-0.94-1.44-1.54
			c-0.5-0.6-1.28-1.15-2.34-1.65c-0.99-0.5-2.39-0.92-4.2-1.28c-1.81-0.35-4.03-0.53-6.65-0.53c-4.11,0-7.87,1.06-11.27,3.19
			s-6.12,4.98-8.14,8.56c-2.02,3.58-3.03,7.6-3.03,12.07c0,4.54,0.94,8.61,2.82,12.23c1.88,3.62,4.5,6.47,7.87,8.56
			c3.37,2.09,7.28,3.14,11.75,3.14c3.19,0,5.62-0.3,7.29-0.9c1.67-0.6,3.1-1.26,4.31-1.97c1.49-0.85,2.52-1.67,3.08-2.45
			c0.57-0.78,1.24-1.17,2.02-1.17c0.57,0,1.01,0.18,1.33,0.53c0.32,0.36,0.48,0.82,0.48,1.38c0,0.85-0.78,1.97-2.34,3.35
			c-1.56,1.38-3.74,2.61-6.54,3.67c-2.8,1.06-6.12,1.6-9.94,1.6c-5.18,0-9.75-1.22-13.72-3.67c-3.97-2.45-7.07-5.78-9.3-10
			c-2.23-4.22-3.35-8.99-3.35-14.3c0-4.96,1.12-9.55,3.35-13.77c2.23-4.22,5.35-7.62,9.36-10.21
			C369.85,62.76,374.55,61.46,379.94,61.46z"/>
		<path d="M434.92,117.3c-5.32,0-10.02-1.13-14.09-3.4c-4.08-2.27-7.28-5.48-9.62-9.62s-3.51-9.02-3.51-14.62
			c0-5.96,1.15-11.02,3.46-15.21c2.3-4.18,5.28-7.39,8.93-9.62c3.65-2.23,7.53-3.35,11.65-3.35c2.98,0,5.88,0.48,8.72,1.44
			c2.83,0.96,5.37,2.45,7.6,4.47s4.04,4.54,5.42,7.55c1.38,3.01,2.14,6.61,2.29,10.79c0,0.57-0.21,1.08-0.64,1.54
			c-0.43,0.46-0.92,0.69-1.49,0.69h-43.39l-0.64-4.04h42.86l-1.06,0.96v-1.91c-0.36-3.76-1.54-6.91-3.56-9.46s-4.45-4.48-7.28-5.8
			c-2.84-1.31-5.78-1.97-8.83-1.97c-2.13,0-4.36,0.48-6.7,1.44s-4.5,2.41-6.49,4.36c-1.99,1.95-3.6,4.41-4.84,7.39
			c-1.24,2.98-1.86,6.45-1.86,10.42c0,4.33,0.87,8.29,2.61,11.91s4.32,6.52,7.76,8.72c3.44,2.2,7.67,3.3,12.71,3.3
			c2.41,0,4.68-0.41,6.81-1.22c2.13-0.81,4.04-1.9,5.74-3.24c1.7-1.35,3.08-2.8,4.15-4.36c0.57-0.64,1.17-0.96,1.81-0.96
			c0.5,0,0.92,0.2,1.28,0.58c0.35,0.39,0.53,0.83,0.53,1.33c0,0.5-0.14,0.92-0.43,1.28c-2.2,2.84-5.02,5.32-8.45,7.44
			C442.91,116.23,439.1,117.3,434.92,117.3z"/>
		<path d="M471.82,116.23c-0.64,0-1.15-0.21-1.54-0.64c-0.39-0.43-0.58-0.92-0.58-1.49V65.29c0-0.57,0.21-1.06,0.64-1.49
			c0.43-0.43,0.92-0.64,1.49-0.64c0.64,0,1.15,0.21,1.54,0.64c0.39,0.43,0.58,0.92,0.58,1.49v17.97l-1.81,2.76
			c0-2.76,0.48-5.56,1.44-8.4c0.96-2.83,2.36-5.48,4.2-7.92c1.84-2.45,4.09-4.43,6.75-5.96c2.66-1.52,5.72-2.29,9.2-2.29
			c0.99,0,2.06,0.14,3.19,0.43c1.13,0.28,1.7,0.96,1.7,2.02c0,0.64-0.18,1.17-0.53,1.59c-0.36,0.43-0.82,0.64-1.38,0.64
			c-0.43,0-0.94-0.16-1.54-0.48c-0.6-0.32-1.47-0.48-2.61-0.48c-2.27,0-4.5,0.67-6.7,2.02c-2.2,1.35-4.2,3.14-6.01,5.37
			c-1.81,2.23-3.24,4.66-4.31,7.29c-1.06,2.62-1.59,5.18-1.59,7.66v26.59c0,0.57-0.21,1.06-0.64,1.49
			C472.88,116.02,472.38,116.23,471.82,116.23z"/>
	</g>
</g>
<linearGradient id="SVGID_1_" gradientUnits="userSpaceOnUse" x1="262.5788" y1="75.9323" x2="279.6157" y2="75.8658">
	<stop  offset="0" style="stop-color:#ED1C24"/>
	<stop  offset="0.3196" style="stop-color:#EA1C23"/>
	<stop  offset="0.5149" style="stop-color:#E21A21"/>
	<stop  offset="0.6768" style="stop-color:#D4171D"/>
	<stop  offset="0.8205" style="stop-color:#BF1417"/>
	<stop  offset="0.9509" style="stop-color:#A50F10"/>
	<stop  offset="1" style="stop-color:#990D0D"/>
</linearGradient>
<path class="st0" d="M260.73,133.88l0.03-98.99c-0.01-0.31-0.01-0.81,0.04-1.41c0.56-6.62,6.46-12.94,13.38-14.94
	c1.43-0.41,3.76-0.89,6.8-0.62c0,32.65,0,65.3,0,97.96c-0.09,3.18-0.92,5.54-1.52,6.91c-2.47,5.61-7.71,9.6-13.33,10.78
	C263.86,134.05,261.94,133.99,260.73,133.88z"/>
<linearGradient id="SVGID_2_" gradientUnits="userSpaceOnUse" x1="1078.491" y1="69.0658" x2="1061.8264" y2="69.0658" gradientTransform="matrix(-1 0 0 1 1364.0869 0)">
	<stop  offset="0" style="stop-color:#E95B0C"/>
	<stop  offset="0.3958" style="stop-color:#E75A0C"/>
	<stop  offset="0.6212" style="stop-color:#DE560D"/>
	<stop  offset="0.8038" style="stop-color:#D0500F"/>
	<stop  offset="0.9625" style="stop-color:#BD4812"/>
	<stop  offset="1" style="stop-color:#B74513"/>
</linearGradient>
<path class="st1" d="M303.81,120.22l-0.03-87.34c0.01-0.28,0.01-0.71-0.04-1.24c-0.56-5.84-6.46-11.42-13.38-13.18
	c-1.43-0.36-3.76-0.79-6.8-0.55c0,28.81,0,57.62,0,86.43c0.09,2.81,0.92,4.89,1.52,6.1c2.47,4.95,7.71,8.47,13.33,9.51
	C300.68,120.37,302.6,120.32,303.81,120.22z"/>
<linearGradient id="SVGID_3_" gradientUnits="userSpaceOnUse" x1="308.2514" y1="62.2637" x2="325.2884" y2="62.1972">
	<stop  offset="0" style="stop-color:#B72585"/>
	<stop  offset="0.2501" style="stop-color:#BC268A"/>
	<stop  offset="0.5416" style="stop-color:#CA2897"/>
	<stop  offset="0.8526" style="stop-color:#E12CAC"/>
	<stop  offset="1" style="stop-color:#EF2EB9"/>
</linearGradient>
<path class="st2" d="M306.41,120.21l0.03-98.99c-0.01-0.31-0.01-0.81,0.04-1.41c0.56-6.62,6.46-12.94,13.38-14.94
	c1.43-0.41,3.76-0.89,6.8-0.62c0,32.65,0,65.3,0,97.96c-0.09,3.18-0.92,5.54-1.52,6.91c-2.47,5.61-7.71,9.6-13.33,10.78
	C309.54,120.38,307.62,120.32,306.41,120.21z"/>
</svg>
